<svg width="300" height="600" viewBox="0 0 300 600" fill="none" xmlns="http://www.w3.org/2000/svg">
  <!-- Phone frame -->
  <rect x="20" y="20" width="260" height="560" rx="30" fill="#1F2937"/>
  <rect x="30" y="30" width="240" height="540" rx="25" fill="#F9FAFB"/>
  
  <!-- Status bar -->
  <rect x="30" y="30" width="240" height="30" rx="25" fill="#1F2937"/>
  <circle cx="50" cy="45" r="3" fill="#00C853"/>
  <rect x="60" y="42" width="40" height="6" rx="3" fill="#6B7280"/>
  <rect x="200" y="40" width="60" height="10" rx="5" fill="#6B7280"/>
  
  <!-- Header -->
  <rect x="40" y="70" width="220" height="60" rx="10" fill="#00C853"/>
  <text x="150" y="100" text-anchor="middle" fill="white" font-family="Arial" font-size="16" font-weight="bold">Tazty</text>
  <text x="150" y="115" text-anchor="middle" fill="white" font-family="Arial" font-size="12">Food Delivery</text>
  
  <!-- Search bar -->
  <rect x="40" y="150" width="220" height="40" rx="20" fill="#E5E7EB"/>
  <circle cx="60" cy="170" r="8" fill="#9CA3AF"/>
  <rect x="75" y="165" width="100" height="10" rx="5" fill="#9CA3AF"/>
  
  <!-- Restaurant cards -->
  <rect x="40" y="210" width="220" height="80" rx="10" fill="white" stroke="#E5E7EB" stroke-width="1"/>
  <rect x="50" y="220" width="60" height="60" rx="8" fill="#00C853"/>
  <rect x="120" y="225" width="120" height="8" rx="4" fill="#374151"/>
  <rect x="120" y="240" width="80" height="6" rx="3" fill="#9CA3AF"/>
  <rect x="120" y="250" width="60" height="6" rx="3" fill="#9CA3AF"/>
  <rect x="200" y="220" width="50" height="20" rx="10" fill="#00C853"/>
  
  <rect x="40" y="300" width="220" height="80" rx="10" fill="white" stroke="#E5E7EB" stroke-width="1"/>
  <rect x="50" y="310" width="60" height="60" rx="8" fill="#FF6B6B"/>
  <rect x="120" y="315" width="120" height="8" rx="4" fill="#374151"/>
  <rect x="120" y="330" width="80" height="6" rx="3" fill="#9CA3AF"/>
  <rect x="120" y="340" width="60" height="6" rx="3" fill="#9CA3AF"/>
  <rect x="200" y="310" width="50" height="20" rx="10" fill="#FF6B6B"/>
  
  <rect x="40" y="390" width="220" height="80" rx="10" fill="white" stroke="#E5E7EB" stroke-width="1"/>
  <rect x="50" y="400" width="60" height="60" rx="8" fill="#4ECDC4"/>
  <rect x="120" y="405" width="120" height="8" rx="4" fill="#374151"/>
  <rect x="120" y="420" width="80" height="6" rx="3" fill="#9CA3AF"/>
  <rect x="120" y="430" width="60" height="6" rx="3" fill="#9CA3AF"/>
  <rect x="200" y="400" width="50" height="20" rx="10" fill="#4ECDC4"/>
  
  <!-- Bottom navigation -->
  <rect x="40" y="500" width="220" height="60" rx="10" fill="white" stroke="#E5E7EB" stroke-width="1"/>
  <circle cx="80" cy="530" r="15" fill="#00C853"/>
  <circle cx="150" cy="530" r="8" fill="#9CA3AF"/>
  <circle cx="220" cy="530" r="8" fill="#9CA3AF"/>
</svg>

